<svg width="41" height="41" viewBox="0 0 41 41" fill="none" xmlns="http://www.w3.org/2000/svg">
<path d="M35.5002 21.4065L23.969 32.9377C23.7286 33.1781 23.4025 33.3132 23.0625 33.3132C22.7225 33.3132 22.3964 33.1781 22.156 32.9377C21.9156 32.6973 21.7805 32.3712 21.7805 32.0312C21.7805 31.6912 21.9156 31.3652 22.156 31.1247L31.5011 21.7812H6.40625C6.06644 21.7812 5.74055 21.6462 5.50027 21.406C5.25999 21.1657 5.125 20.8398 5.125 20.5C5.125 20.1602 5.25999 19.8343 5.50027 19.594C5.74055 19.3537 6.06644 19.2187 6.40625 19.2187H31.5011L22.156 9.87521C21.9156 9.6348 21.7805 9.30873 21.7805 8.96873C21.7805 8.62873 21.9156 8.30266 22.156 8.06225C22.3964 7.82183 22.7225 7.68677 23.0625 7.68677C23.4025 7.68677 23.7286 7.82183 23.969 8.06225L35.5002 19.5935C35.6194 19.7125 35.7139 19.8538 35.7783 20.0093C35.8428 20.1649 35.876 20.3316 35.876 20.5C35.876 20.6684 35.8428 20.8351 35.7783 20.9906C35.7139 21.1462 35.6194 21.2875 35.5002 21.4065Z" fill="black"/>
</svg>
