<svg width="69" height="70" viewBox="0 0 69 70" fill="none" xmlns="http://www.w3.org/2000/svg">
<path d="M34.5003 0C15.4488 0 0 16.0664 0 35.8861C0 51.7415 9.88538 65.1932 23.5934 69.9383C25.3176 70.2705 25.9506 69.1598 25.9506 68.212C25.9506 67.3563 25.9186 64.5294 25.9038 61.5308C16.3058 63.7016 14.2805 57.2967 14.2805 57.2967C12.7111 53.1487 10.4498 52.0458 10.4498 52.0458C7.31963 49.8185 10.6858 49.8643 10.6858 49.8643C14.1502 50.1174 15.9744 53.5623 15.9744 53.5623C19.0515 59.0485 24.0453 57.4625 26.014 56.5455C26.3237 54.2261 27.2178 52.643 28.2044 51.7469C20.5415 50.8394 12.486 47.7624 12.486 34.0118C12.486 30.0939 13.8337 26.8926 16.0407 24.3795C15.6825 23.4756 14.5016 19.8257 16.3749 14.8826C16.3749 14.8826 19.272 13.9181 25.8649 18.5611C28.6169 17.766 31.5683 17.3672 34.5003 17.3535C37.4322 17.3672 40.3859 17.766 43.1431 18.5611C49.728 13.9181 52.6211 14.8826 52.6211 14.8826C54.499 19.8257 53.3175 23.4756 52.9593 24.3795C55.1714 26.8926 56.51 30.0939 56.51 34.0118C56.51 47.7951 48.4391 50.8299 40.7567 51.7183C41.9942 52.832 43.0968 55.0159 43.0968 58.3639C43.0968 63.1656 43.0568 67.03 43.0568 68.212C43.0568 69.167 43.6778 70.286 45.4266 69.9336C59.1272 65.1831 69 51.7362 69 35.8861C69 16.0664 53.5535 0 34.5003 0ZM12.9215 51.1205C12.8455 51.2988 12.5758 51.3523 12.3302 51.2299C12.0799 51.1128 11.9394 50.8697 12.0205 50.6909C12.0948 50.5072 12.365 50.4561 12.6147 50.5791C12.8655 50.6962 13.0083 50.9416 12.9215 51.1205ZM14.6185 52.6956C14.454 52.8542 14.1323 52.7806 13.9141 52.5298C13.6884 52.2796 13.6461 51.945 13.813 51.784C13.9826 51.6253 14.2946 51.6996 14.5208 51.9498C14.7465 52.2029 14.7905 52.5351 14.6185 52.6956ZM15.7827 54.7108C15.5714 54.8635 15.2257 54.7203 15.012 54.4012C14.8007 54.0821 14.8007 53.6994 15.0166 53.5461C15.2309 53.3927 15.5714 53.5306 15.7879 53.8474C15.9987 54.1718 15.9987 54.5545 15.7827 54.7108ZM17.7517 57.0447C17.5626 57.2617 17.1598 57.2034 16.865 56.9075C16.5634 56.6181 16.4794 56.2074 16.6691 55.9905C16.8605 55.773 17.2655 55.8342 17.5626 56.1278C17.862 56.4166 17.9534 56.8302 17.7517 57.0447ZM20.2964 57.8327C20.213 58.1137 19.8251 58.2415 19.4343 58.1221C19.0441 57.999 18.7887 57.6698 18.8675 57.3858C18.9487 57.1029 19.3383 56.9698 19.7319 57.0976C20.1216 57.22 20.3775 57.5468 20.2964 57.8327ZM23.1923 58.1669C23.2021 58.4628 22.8707 58.7082 22.4605 58.7136C22.048 58.7231 21.7144 58.4836 21.7098 58.1924C21.7098 57.8935 22.0337 57.6505 22.4462 57.6433C22.8564 57.635 23.1923 57.8727 23.1923 58.1669ZM26.0373 58.0534C26.0864 58.3422 25.8013 58.6388 25.394 58.7178C24.9935 58.7939 24.6227 58.6156 24.5719 58.3292C24.5222 58.0332 24.8124 57.7367 25.2123 57.66C25.6202 57.5863 25.9853 57.7599 26.0373 58.0534Z" fill="#161614"/>
</svg>
