<svg width="69" height="70" viewBox="0 0 69 70" fill="none" xmlns="http://www.w3.org/2000/svg">
<path d="M63.6923 0H5.30769C3.9 0 2.54997 0.567306 1.55459 1.57712C0.559201 2.58693 0 3.95653 0 5.38462V64.6154C0 66.0435 0.559201 67.4131 1.55459 68.4229C2.54997 69.4327 3.9 70 5.30769 70H63.6923C65.1 70 66.45 69.4327 67.4454 68.4229C68.4408 67.4131 69 66.0435 69 64.6154V5.38462C69 3.95653 68.4408 2.58693 67.4454 1.57712C66.45 0.567306 65.1 0 63.6923 0ZM63.6923 64.6154H5.30769V5.38462H63.6923V64.6154ZM23.8846 29.6154V51.1538C23.8846 51.8679 23.605 52.5527 23.1073 53.0576C22.6096 53.5625 21.9346 53.8462 21.2308 53.8462C20.5269 53.8462 19.8519 53.5625 19.3542 53.0576C18.8565 52.5527 18.5769 51.8679 18.5769 51.1538V29.6154C18.5769 28.9013 18.8565 28.2165 19.3542 27.7116C19.8519 27.2067 20.5269 26.9231 21.2308 26.9231C21.9346 26.9231 22.6096 27.2067 23.1073 27.7116C23.605 28.2165 23.8846 28.9013 23.8846 29.6154ZM53.0769 39.0385V51.1538C53.0769 51.8679 52.7973 52.5527 52.2996 53.0576C51.8019 53.5625 51.1269 53.8462 50.4231 53.8462C49.7192 53.8462 49.0442 53.5625 48.5465 53.0576C48.0488 52.5527 47.7692 51.8679 47.7692 51.1538V39.0385C47.7692 37.2533 47.0702 35.5414 45.826 34.2791C44.5818 33.0168 42.8942 32.3077 41.1346 32.3077C39.375 32.3077 37.6875 33.0168 36.4432 34.2791C35.199 35.5414 34.5 37.2533 34.5 39.0385V51.1538C34.5 51.8679 34.2204 52.5527 33.7227 53.0576C33.225 53.5625 32.55 53.8462 31.8462 53.8462C31.1423 53.8462 30.4673 53.5625 29.9696 53.0576C29.4719 52.5527 29.1923 51.8679 29.1923 51.1538V29.6154C29.1956 28.9559 29.4374 28.3206 29.8717 27.83C30.3061 27.3394 30.9029 27.0275 31.5488 26.9537C32.1948 26.8798 32.845 27.049 33.3762 27.4292C33.9073 27.8094 34.2824 28.3742 34.4303 29.0163C36.2256 27.7808 38.3187 27.0648 40.4849 26.945C42.6511 26.8253 44.8085 27.3064 46.7255 28.3367C48.6424 29.3671 50.2466 30.9077 51.3656 32.7931C52.4846 34.6786 53.0762 36.8376 53.0769 39.0385ZM25.2115 20.1923C25.2115 20.991 24.9781 21.7718 24.5407 22.436C24.1032 23.1001 23.4815 23.6177 22.7541 23.9234C22.0268 24.229 21.2264 24.309 20.4542 24.1532C19.682 23.9973 18.9727 23.6127 18.4159 23.0479C17.8592 22.4831 17.4801 21.7636 17.3265 20.9802C17.1729 20.1968 17.2517 19.3848 17.553 18.6469C17.8543 17.9089 18.3645 17.2782 19.0192 16.8344C19.6738 16.3907 20.4434 16.1538 21.2308 16.1538C22.2865 16.1538 23.2991 16.5793 24.0456 17.3367C24.7921 18.094 25.2115 19.1212 25.2115 20.1923Z" fill="black"/>
</svg>
