<svg width="69" height="89" viewBox="0 0 69 89" fill="none" xmlns="http://www.w3.org/2000/svg">
<path d="M67.989 67.4583L47.2896 87.9961C46.9692 88.3144 46.5887 88.5668 46.1699 88.7391C45.751 88.9113 45.3021 89 44.8488 89C44.3954 89 43.9465 88.9113 43.5276 88.7391C43.1088 88.5668 42.7283 88.3144 42.4079 87.9961L21.7085 67.4583C21.0612 66.816 20.6975 65.9448 20.6975 65.0365C20.6975 64.1282 21.0612 63.257 21.7085 62.6147C22.3559 61.9725 23.2338 61.6116 24.1493 61.6116C25.0648 61.6116 25.9428 61.9725 26.5901 62.6147L41.3988 77.3121V44.4987C41.3874 34.516 37.3856 24.9455 30.2713 17.8867C23.1569 10.8279 13.5111 6.85727 3.4499 6.84595C2.53493 6.84595 1.65744 6.48531 1.01045 5.84338C0.363472 5.20145 0 4.3308 0 3.42297C0 2.51514 0.363472 1.6445 1.01045 1.00257C1.65744 0.360634 2.53493 0 3.4499 0C15.3407 0.0124588 26.7408 4.7047 35.1489 13.0471C43.5569 21.3895 48.2861 32.7007 48.2987 44.4987V77.3121L63.1074 62.6147C63.7547 61.9725 64.6327 61.6116 65.5482 61.6116C66.4637 61.6116 67.3416 61.9725 67.989 62.6147C68.6363 63.257 69 64.1282 69 65.0365C69 65.9448 68.6363 66.816 67.989 67.4583Z" fill="white"/>
</svg>
